<?xml version="1.0" encoding="UTF-8"?>
<!DOCTYPE svg PUBLIC "-//W3C//DTD SVG 1.1//EN" "http://www.w3.org/Graphics/SVG/1.1/DTD/svg11.dtd">
<svg xmlns="http://www.w3.org/2000/svg" version="1.1" width="1024px" height="1024px" style="shape-rendering:geometricPrecision; text-rendering:geometricPrecision; image-rendering:optimizeQuality; fill-rule:evenodd; clip-rule:evenodd" xmlns:xlink="http://www.w3.org/1999/xlink">
<g><path style="opacity:1" fill="#fcf2df" d="M -0.5,-0.5 C 340.833,-0.5 682.167,-0.5 1023.5,-0.5C 1023.5,340.833 1023.5,682.167 1023.5,1023.5C 682.167,1023.5 340.833,1023.5 -0.5,1023.5C -0.5,682.167 -0.5,340.833 -0.5,-0.5 Z"/></g>
<g><path style="opacity:1" fill="#4e301a" d="M 509.5,222.5 C 512.099,222.549 514.266,223.549 516,225.5C 522.909,235.831 524.242,246.831 520,258.5C 517.297,264.52 514.631,270.52 512,276.5C 510.967,281.894 511.967,286.894 515,291.5C 516.489,295.833 514.989,298.167 510.5,298.5C 508.088,298.594 506.255,297.594 505,295.5C 500.741,287.882 499.741,279.882 502,271.5C 505.275,264.616 508.275,257.616 511,250.5C 511.667,246.833 511.667,243.167 511,239.5C 509.354,235.71 507.854,231.877 506.5,228C 506.863,225.808 507.863,223.974 509.5,222.5 Z"/></g>
<g><path style="opacity:1" fill="#4e311a" d="M 466.5,229.5 C 469.862,229.07 472.695,230.07 475,232.5C 481.097,241.229 482.097,250.562 478,260.5C 475.667,265.167 473.333,269.833 471,274.5C 469.648,281.635 470.815,288.302 474.5,294.5C 474.167,298.167 472.167,300.167 468.5,300.5C 465.896,299.731 464.062,298.064 463,295.5C 459.326,287.4 458.659,279.067 461,270.5C 464.216,264.736 466.883,258.736 469,252.5C 469.667,249.5 469.667,246.5 469,243.5C 467.027,240.536 465.527,237.369 464.5,234C 464.519,232.167 465.185,230.667 466.5,229.5 Z"/></g>
<g><path style="opacity:1" fill="#4c2f19" d="M 549.5,233.5 C 552.97,232.875 555.804,233.875 558,236.5C 564.553,246.387 565.22,256.721 560,267.5C 557.921,271.993 555.588,276.326 553,280.5C 552.536,285.956 552.869,291.289 554,296.5C 551.075,299.059 548.075,299.059 545,296.5C 542.123,289.973 541.79,283.307 544,276.5C 550.029,268.083 553.029,258.749 553,248.5C 551.354,244.71 549.854,240.877 548.5,237C 548.648,235.744 548.982,234.577 549.5,233.5 Z"/></g>
<g><path style="opacity:1" fill="#250a01" d="M 513.5,315.5 C 519.523,315.502 525.523,315.835 531.5,316.5C 530.378,317.156 529.045,317.489 527.5,317.5C 520.181,316.816 512.848,316.316 505.5,316C 508.146,315.503 510.813,315.336 513.5,315.5 Z"/></g>
<g><path style="opacity:1" fill="#2d150a" d="M 426.5,345.5 C 421.833,350.833 416.833,355.833 411.5,360.5C 415.5,354.5 420.5,349.5 426.5,345.5 Z"/></g>
<g><path style="opacity:1" fill="#4e301a" d="M 513.5,315.5 C 510.813,315.336 508.146,315.503 505.5,316C 512.848,316.316 520.181,316.816 527.5,317.5C 529.045,317.489 530.378,317.156 531.5,316.5C 564.915,322.873 592.582,339.039 614.5,365C 633.053,370.87 648.553,381.37 661,396.5C 682.444,421.497 692.778,450.497 692,483.5C 687.904,522.549 669.071,552.049 635.5,572C 597.74,592.385 557.74,599.052 515.5,592C 512.804,591.235 510.304,590.068 508,588.5C 502.637,592.723 496.47,594.889 489.5,595C 442.607,596.598 403.107,580.432 371,546.5C 356.16,528.174 343.826,508.174 334,486.5C 322.677,460.987 324.344,436.32 339,412.5C 344.73,402.206 351.564,392.706 359.5,384C 371.143,375.271 382.643,375.438 394,384.5C 398.632,375.546 404.465,367.546 411.5,360.5C 416.833,355.833 421.833,350.833 426.5,345.5C 451.392,323.536 480.392,313.536 513.5,315.5 Z"/></g>
<g><path style="opacity:1" fill="#4b2e19" d="M 532.5,530.5 C 531.851,531.606 531.517,532.606 531.5,533.5C 530.833,533.167 530.167,532.833 529.5,532.5C 523.963,534.025 518.296,534.691 512.5,534.5C 505.818,534.11 499.151,533.943 492.5,534C 494.715,534.17 496.715,534.837 498.5,536C 496.559,536.304 494.893,537.137 493.5,538.5C 492.158,537.098 491.324,537.431 491,539.5C 490.667,538.833 490.333,538.167 490,537.5C 488.376,537.57 486.543,538.07 484.5,539C 487.471,539.794 490.471,540.461 493.5,541C 492.552,541.483 491.552,541.649 490.5,541.5C 458.109,536.716 429.609,523.716 405,502.5C 403.766,495.069 406.6,492.902 413.5,496C 442.503,520.066 476.003,532.566 514,533.5C 520.365,533.593 526.532,532.593 532.5,530.5 Z"/></g>
<g><path style="opacity:1" fill="#301306" d="M 681.5,471.5 C 681.558,465.082 680.892,458.748 679.5,452.5C 680.341,451.991 680.841,452.657 681,454.5C 682.99,463.75 683.657,473.083 683,482.5C 682.823,478.644 682.323,474.977 681.5,471.5 Z"/></g>
<g><path style="opacity:1" fill="#d56f38" d="M 491.5,326.5 C 542.238,322.294 582.404,340.627 612,381.5C 618.952,393.314 623.452,405.98 625.5,419.5C 621.121,418.987 616.787,418.153 612.5,417C 594.156,409.997 575.822,402.997 557.5,396C 541.893,395.95 535.059,403.784 537,419.5C 539.716,429.228 545.216,437.061 553.5,443C 564.49,448.493 575.157,454.493 585.5,461C 599.529,473.104 603.363,487.937 597,505.5C 586.856,525.81 571.356,540.476 550.5,549.5C 551.094,543.175 548.76,538.008 543.5,534C 548.489,525.234 547.156,517.567 539.5,511C 535.065,508.449 530.399,506.449 525.5,505C 508.28,501.89 491.28,497.89 474.5,493C 459.752,488.132 446.752,480.466 435.5,470C 448.272,472.528 460.939,471.861 473.5,468C 485.906,462.372 489.073,453.539 483,441.5C 480.463,438.628 477.63,436.128 474.5,434C 458.018,426.924 441.684,419.591 425.5,412C 417.872,406.04 410.538,399.707 403.5,393C 422.155,356.489 451.488,334.323 491.5,326.5 Z"/></g>
<g><path style="opacity:1" fill="#fbf2df" d="M 679.5,452.5 C 680.892,458.748 681.558,465.082 681.5,471.5C 680.741,519.182 658.408,552.348 614.5,571C 583.548,583.895 551.548,587.562 518.5,582C 517.234,581.691 516.067,581.191 515,580.5C 514.502,577.183 514.335,573.85 514.5,570.5C 549.164,566.094 577.33,550.428 599,523.5C 616.054,498.657 614.221,475.49 593.5,454C 582.99,446.909 571.99,440.575 560.5,435C 557.333,431.833 554.167,428.667 551,425.5C 548.364,422.137 546.864,418.303 546.5,414C 547.75,407.099 551.75,404.766 558.5,407C 577.522,415.119 596.855,422.452 616.5,429C 622.646,431.427 628.479,430.927 634,427.5C 635.701,425.1 636.534,422.433 636.5,419.5C 633.909,406.392 629.909,393.726 624.5,381.5C 624.833,381.167 625.167,380.833 625.5,380.5C 652.303,397.96 670.303,421.96 679.5,452.5 Z"/></g>
<g><path style="opacity:1" fill="#fbf1df" d="M 532.5,530.5 C 526.532,532.593 520.365,533.593 514,533.5C 476.003,532.566 442.503,520.066 413.5,496C 406.6,492.902 403.766,495.069 405,502.5C 429.609,523.716 458.109,536.716 490.5,541.5C 497.443,542.969 504.609,543.636 512,543.5C 518.414,543.711 524.581,543.045 530.5,541.5C 540.232,541.95 541.898,545.783 535.5,553C 532.952,555.442 529.952,557.108 526.5,558C 520.094,559.562 513.76,560.729 507.5,561.5C 497.11,561.614 486.777,560.948 476.5,559.5C 446.918,553.875 420.918,541.042 398.5,521C 393.932,519.35 391.266,520.85 390.5,525.5C 390.848,527.697 391.848,529.53 393.5,531C 425.535,556.569 462.035,570.736 503,573.5C 503.93,576.85 503.097,579.683 500.5,582C 450.993,589.006 409.493,573.84 376,536.5C 361.783,518.076 350.116,498.076 341,476.5C 333.543,454.897 336.21,434.564 349,415.5C 354.167,406.01 360.667,397.51 368.5,390C 374.67,386.58 380.67,386.914 386.5,391C 396.27,401.775 406.937,411.442 418.5,420C 435.13,428.435 452.13,436.101 469.5,443C 478.669,451.592 477.002,457.259 464.5,460C 447.713,462.31 432.38,458.644 418.5,449C 412.379,448.454 409.546,451.288 410,457.5C 424.853,478.341 444.353,493.175 468.5,502C 488.333,507.639 508.333,512.639 528.5,517C 536.043,519.815 537.377,524.315 532.5,530.5 Z"/></g>
<g><path style="opacity:1" fill="#52331b" d="M 530.5,541.5 C 524.581,543.045 518.414,543.711 512,543.5C 504.609,543.636 497.443,542.969 490.5,541.5C 491.552,541.649 492.552,541.483 493.5,541C 490.471,540.461 487.471,539.794 484.5,539C 486.543,538.07 488.376,537.57 490,537.5C 490.333,538.167 490.667,538.833 491,539.5C 491.324,537.431 492.158,537.098 493.5,538.5C 494.893,537.137 496.559,536.304 498.5,536C 496.715,534.837 494.715,534.17 492.5,534C 499.151,533.943 505.818,534.11 512.5,534.5C 518.296,534.691 523.963,534.025 529.5,532.5C 530.167,532.833 530.833,533.167 531.5,533.5C 531.517,532.606 531.851,531.606 532.5,530.5C 533.496,530.586 534.329,530.252 535,529.5C 535.899,533.57 538.399,535.57 542.5,535.5C 542.351,536.552 542.517,537.552 543,538.5C 545.488,537.588 547.155,538.588 548,541.5C 548.814,543.902 548.647,546.235 547.5,548.5C 544.82,547.005 543.32,544.672 543,541.5C 540.216,544.284 538.549,543.617 538,539.5C 534.792,540.037 532.292,540.703 530.5,541.5 Z"/></g>
<g><path style="opacity:1" fill="#200b03" d="M 476.5,559.5 C 486.777,560.948 497.11,561.614 507.5,561.5C 503.891,562.671 497.557,562.837 488.5,562C 484.233,561.811 480.233,560.977 476.5,559.5 Z"/></g>
<g><path style="opacity:1" fill="#2a1207" d="M 472.5,636.5 C 504.493,636.667 504.493,637.167 472.5,638C 471.483,639.049 471.316,640.216 472,641.5C 475.214,642.498 477.381,644.498 478.5,647.5C 476.287,645.472 473.787,643.805 471,642.5C 470.059,640.011 470.559,638.011 472.5,636.5 Z"/></g>
<g><path style="opacity:1" fill="#fbfaf7" d="M 807.5,720.5 C 807.667,691.498 807.5,662.498 807,633.5C 806.225,631.777 804.892,630.777 803,630.5C 795.858,633.077 788.691,635.577 781.5,638C 778.694,640.937 779.027,643.437 782.5,645.5C 781.207,646.645 780.041,646.311 779,644.5C 778.056,641.653 778.556,639.153 780.5,637C 787.744,634.197 795.077,631.697 802.5,629.5C 805.006,629.335 806.839,630.335 808,632.5C 808.83,662.003 808.664,691.336 807.5,720.5 Z"/></g>
<g><path style="opacity:1" fill="#51331b" d="M 807.5,720.5 C 807.511,722.017 808.177,723.184 809.5,724C 814.229,724.996 815.562,727.663 813.5,732C 806.041,734.785 798.374,736.118 790.5,736C 789.718,733.26 789.218,730.426 789,727.5C 776.401,739.159 762.901,740.326 748.5,731C 739.71,722.049 735.71,711.215 736.5,698.5C 739.391,672.111 754.058,660.278 780.5,663C 782.871,663.735 785.205,664.568 787.5,665.5C 788.663,660.198 788.829,654.864 788,649.5C 786.982,647.072 785.148,645.738 782.5,645.5C 779.027,643.437 778.694,640.937 781.5,638C 788.691,635.577 795.858,633.077 803,630.5C 804.892,630.777 806.225,631.777 807,633.5C 807.5,662.498 807.667,691.498 807.5,720.5 Z"/></g>
<g><path style="opacity:1" fill="#faf1df" d="M 769.5,671.5 C 778.754,670.203 784.921,673.87 788,682.5C 788.667,692.833 788.667,703.167 788,713.5C 783.622,722.966 776.455,725.799 766.5,722C 761.494,718.493 758.66,713.66 758,707.5C 757.333,700.167 757.333,692.833 758,685.5C 759.873,679.136 763.706,674.469 769.5,671.5 Z"/></g>
<g><path style="opacity:1" fill="#55361d" d="M 723.5,682.5 C 722.339,695.994 722.173,709.66 723,723.5C 723.465,724.931 724.299,726.097 725.5,727C 727.587,727.792 729.421,728.959 731,730.5C 731.399,730.272 731.565,729.938 731.5,729.5C 733.191,732.664 732.191,734.664 728.5,735.5C 719.342,734.67 710.009,734.17 700.5,734C 699.248,732.172 699.248,730.339 700.5,728.5C 702.27,726.887 703.436,724.887 704,722.5C 704.926,708.777 704.593,695.111 703,681.5C 696.045,675.008 688.878,674.842 681.5,681C 680.242,682.741 679.242,684.574 678.5,686.5C 678.333,699.171 678.5,711.838 679,724.5C 680.812,726.3 682.645,727.967 684.5,729.5C 684.714,731.144 684.38,732.644 683.5,734C 673.167,734.667 662.833,734.667 652.5,734C 651.483,732.951 651.316,731.784 652,730.5C 655.214,729.502 657.381,727.502 658.5,724.5C 659.222,724.082 659.722,723.416 660,722.5C 660.667,709.5 660.667,696.5 660,683.5C 659.841,681.657 659.341,680.991 658.5,681.5C 657,679.821 655.167,678.488 653,677.5C 651.369,675.045 651.203,672.545 652.5,670C 659.976,667.423 667.476,664.923 675,662.5C 675.772,662.645 676.439,662.978 677,663.5C 677.333,666.5 677.667,669.5 678,672.5C 689.169,661.437 701.669,659.604 715.5,667C 719.887,671.274 722.554,676.441 723.5,682.5 Z"/></g>
<g><path style="opacity:1" fill="#30160c" d="M 603.5,695.5 C 597.566,697.952 591.233,700.952 584.5,704.5C 589.881,699.645 596.214,696.645 603.5,695.5 Z"/></g>
<g><path style="opacity:1" fill="#51331b" d="M 276.5,662.5 C 298.819,660.398 312.986,670.065 319,691.5C 321.464,720.031 308.464,735.365 280,737.5C 261.188,736.024 249.855,726.024 246,707.5C 243.296,683.53 253.463,668.53 276.5,662.5 Z"/></g>
<g><path style="opacity:1" fill="#fbf2e0" d="M 276.5,671.5 C 287.943,671.432 294.776,677.098 297,688.5C 299.555,700.405 298.888,712.071 295,723.5C 287.374,730.382 280.041,730.049 273,722.5C 266.583,709.441 264.916,695.774 268,681.5C 269.687,677.084 272.52,673.751 276.5,671.5 Z"/></g>
<g><path style="opacity:1" fill="#51321b" d="M 841.5,662.5 C 851.605,661.492 861.271,662.992 870.5,667C 875.088,671.189 876.588,676.355 875,682.5C 872.503,684.478 869.669,684.978 866.5,684C 864.3,681.766 862.467,679.266 861,676.5C 856.078,671.798 850.245,670.298 843.5,672C 836.435,675.726 835.768,680.392 841.5,686C 850.417,689.961 859.417,693.628 868.5,697C 876.473,702.463 879.307,709.963 877,719.5C 873.155,730.522 865.322,736.355 853.5,737C 844.011,738.584 835.011,737.25 826.5,733C 819.95,726.703 818.95,719.703 823.5,712C 826.303,711.245 828.97,711.578 831.5,713C 832.955,716.696 834.788,720.196 837,723.5C 844.065,729.716 851.398,730.05 859,724.5C 862.483,720.448 862.317,716.615 858.5,713C 849.339,709.724 840.339,706.058 831.5,702C 820.896,694.104 818.73,684.27 825,672.5C 829.715,667.732 835.215,664.399 841.5,662.5 Z"/></g>
<g><path style="opacity:1" fill="#52341b" d="M 638.5,722.5 C 640.305,724.197 642.639,725.03 645.5,725C 648.397,730.383 646.73,733.883 640.5,735.5C 635.537,736.496 630.537,736.663 625.5,736C 622.272,734.437 620.105,731.937 619,728.5C 608.617,738.308 597.117,739.808 584.5,733C 577.099,725.968 575.599,717.801 580,708.5C 580.876,706.365 582.376,705.031 584.5,704.5C 591.233,700.952 597.566,697.952 603.5,695.5C 608.273,693.978 613.273,692.978 618.5,692.5C 619.592,685.192 617.926,678.692 613.5,673C 608.676,670.554 604.509,671.387 601,675.5C 598.681,680.146 596.181,684.646 593.5,689C 582.738,692.576 578.571,688.742 581,677.5C 587.715,666.739 597.548,661.739 610.5,662.5C 623.949,661.292 632.782,666.958 637,679.5C 637.169,694.006 637.669,708.339 638.5,722.5 Z"/></g>
<g><path style="opacity:1" fill="#faf2e0" d="M 613.5,700.5 C 615.167,700.5 616.833,700.5 618.5,700.5C 618.666,706.176 618.499,711.843 618,717.5C 614.628,724.433 609.128,726.933 601.5,725C 594.661,718.15 594.995,711.483 602.5,705C 606.157,703.178 609.824,701.678 613.5,700.5 Z"/></g>
<g><path style="opacity:1" fill="#51331b" d="M 472.5,636.5 C 477.656,635.834 482.989,635.501 488.5,635.5C 494.911,635.397 501.244,635.897 507.5,637C 508.576,638.726 508.743,640.559 508,642.5C 503.88,643.783 501.38,646.449 500.5,650.5C 499.553,659.78 499.22,669.114 499.5,678.5C 513.167,678.5 526.833,678.5 540.5,678.5C 540.5,669.5 540.5,660.5 540.5,651.5C 540.509,649.692 540.009,648.025 539,646.5C 536.276,645.312 533.943,643.645 532,641.5C 530.967,638.783 531.8,636.949 534.5,636C 545.833,635.333 557.167,635.333 568.5,636C 570.396,637.808 570.896,639.975 570,642.5C 565.528,643.968 562.862,646.968 562,651.5C 561.333,674.5 561.333,697.5 562,720.5C 562.598,724.932 565.098,727.598 569.5,728.5C 569.833,729.5 570.167,730.5 570.5,731.5C 570.36,733.03 569.693,734.03 568.5,734.5C 557.162,734.667 545.828,734.5 534.5,734C 533.744,732.62 533.078,732.453 532.5,733.5C 531.402,732.399 531.235,731.066 532,729.5C 535.31,727.854 537.977,725.52 540,722.5C 540.5,711.505 540.667,700.505 540.5,689.5C 527.01,688.504 513.344,688.171 499.5,688.5C 499.173,698.681 499.506,708.681 500.5,718.5C 500.442,723.625 502.942,726.958 508,728.5C 508.758,730.769 508.591,732.936 507.5,735C 495.833,735.667 484.167,735.667 472.5,735C 470.675,733.534 470.175,731.701 471,729.5C 472.828,727.919 474.828,726.585 477,725.5C 477.973,723.608 478.64,721.608 479,719.5C 479.783,695.48 479.617,671.48 478.5,647.5C 477.381,644.498 475.214,642.498 472,641.5C 471.316,640.216 471.483,639.049 472.5,638C 504.493,637.167 504.493,636.667 472.5,636.5 Z"/></g>
<g><path style="opacity:1" fill="#c1ae93" d="M 540.5,689.5 C 527.167,689.5 513.833,689.5 500.5,689.5C 500.5,699.167 500.5,708.833 500.5,718.5C 499.506,708.681 499.173,698.681 499.5,688.5C 513.344,688.171 527.01,688.504 540.5,689.5 Z"/></g>
<g><path style="opacity:1" fill="#f3efe7" d="M 500.5,650.5 C 501.493,658.984 501.826,667.651 501.5,676.5C 514.167,676.5 526.833,676.5 539.5,676.5C 539.174,667.983 539.507,659.65 540.5,651.5C 540.5,660.5 540.5,669.5 540.5,678.5C 526.833,678.5 513.167,678.5 499.5,678.5C 499.22,669.114 499.553,659.78 500.5,650.5 Z"/></g>
<g><path style="opacity:1" fill="#230a01" d="M 658.5,724.5 C 659.787,711.026 659.787,697.693 658.5,684.5C 658.5,683.5 658.5,682.5 658.5,681.5C 659.341,680.991 659.841,681.657 660,683.5C 660.667,696.5 660.667,709.5 660,722.5C 659.722,723.416 659.222,724.082 658.5,724.5 Z"/></g>
<g><path style="opacity:1" fill="#230c04" d="M 723.5,682.5 C 723.333,695.837 723.5,709.171 724,722.5C 726.015,725.412 728.515,727.745 731.5,729.5C 731.565,729.938 731.399,730.272 731,730.5C 729.421,728.959 727.587,727.792 725.5,727C 724.299,726.097 723.465,724.931 723,723.5C 722.173,709.66 722.339,695.994 723.5,682.5 Z"/></g>
<g><path style="opacity:1" fill="#51321b" d="M 190.5,633.5 C 200.989,632.866 211.323,633.699 221.5,636C 235.466,641.281 240.633,651.114 237,665.5C 233,668.167 229,668.167 225,665.5C 222.294,658.578 218.46,652.411 213.5,647C 195.01,639.159 182.176,644.659 175,663.5C 172.612,673.707 171.945,684.04 173,694.5C 181.582,721.54 198.749,729.04 224.5,717C 227.167,714.333 229.833,711.667 232.5,709C 234.112,708.28 235.612,708.446 237,709.5C 238.03,714.28 237.03,718.613 234,722.5C 222.106,734.774 207.606,739.607 190.5,737C 169.757,733.59 156.59,721.756 151,701.5C 144.435,666.985 157.602,644.318 190.5,633.5 Z"/></g>
<g><path style="opacity:1" fill="#4e311a" d="M 330.5,664.5 C 347.837,664.333 365.17,664.5 382.5,665C 384.478,667.497 384.978,670.331 384,673.5C 371.971,690.696 360.138,708.03 348.5,725.5C 362.765,728.915 374.098,724.749 382.5,713C 383.833,712.333 385.167,712.333 386.5,713C 388.76,721.221 387.093,728.555 381.5,735C 363.5,735.667 345.5,735.667 327.5,735C 324.209,732.668 323.709,729.835 326,726.5C 338.167,709 350.333,691.5 362.5,674C 355.433,673.161 348.433,673.494 341.5,675C 337.447,677.387 334.447,680.72 332.5,685C 325.836,687.301 323.336,684.801 325,677.5C 325.767,672.642 327.6,668.309 330.5,664.5 Z"/></g>
<g><path style="opacity:1" fill="#280f03" d="M 568.5,734.5 C 557.007,735.659 545.341,735.826 533.5,735C 532.944,734.617 532.611,734.117 532.5,733.5C 533.078,732.453 533.744,732.62 534.5,734C 545.828,734.5 557.162,734.667 568.5,734.5 Z"/></g>
<g><path style="opacity:1" fill="#efe9df" d="M 658.5,684.5 C 659.787,697.693 659.787,711.026 658.5,724.5C 656.287,726.528 653.787,728.195 651,729.5C 650.257,731.441 650.424,733.274 651.5,735C 662.5,735.667 673.5,735.667 684.5,735C 687.124,733.031 687.124,731.198 684.5,729.5C 682.645,727.967 680.812,726.3 679,724.5C 678.5,711.838 678.333,699.171 678.5,686.5C 679.331,698.66 679.831,710.993 680,723.5C 681.896,725.53 684.063,727.197 686.5,728.5C 688.382,732.415 687.382,735.248 683.5,737C 673.167,737.667 662.833,737.667 652.5,737C 650.448,736.07 648.948,734.57 648,732.5C 645.764,735.069 643.264,736.069 640.5,735.5C 646.73,733.883 648.397,730.383 645.5,725C 642.639,725.03 640.305,724.197 638.5,722.5C 638.369,721.761 638.536,721.094 639,720.5C 640.984,722.613 643.484,723.78 646.5,724C 648.049,725.214 649.215,726.714 650,728.5C 652.172,727.415 654.172,726.081 656,724.5C 657.111,711.062 657.944,697.729 658.5,684.5 Z"/></g>
<g><path style="opacity:1" fill="#2e150b" d="M 658.5,724.5 C 657.381,727.502 655.214,729.502 652,730.5C 651.316,731.784 651.483,732.951 652.5,734C 662.833,734.667 673.167,734.667 683.5,734C 684.38,732.644 684.714,731.144 684.5,729.5C 687.124,731.198 687.124,733.031 684.5,735C 673.5,735.667 662.5,735.667 651.5,735C 650.424,733.274 650.257,731.441 651,729.5C 653.787,728.195 656.287,726.528 658.5,724.5 Z"/></g>
<g><path style="opacity:1" fill="#291004" d="M 700.5,728.5 C 699.248,730.339 699.248,732.172 700.5,734C 710.009,734.17 719.342,734.67 728.5,735.5C 718.828,735.666 709.161,735.5 699.5,735C 696.793,732.304 697.126,730.138 700.5,728.5 Z"/></g>
<g><path style="opacity:1" fill="#331c12" d="M 407.5,748.5 C 397.272,744.886 393.439,748.553 396,759.5C 397.214,761.049 398.714,762.215 400.5,763C 407.323,763.934 413.99,763.434 420.5,761.5C 413.235,766.223 405.568,766.723 397.5,763C 392.167,757.333 392.167,751.667 397.5,746C 401.463,744.863 404.796,745.697 407.5,748.5 Z"/></g>
<g><path style="opacity:1" fill="#4f311a" d="M 420.5,761.5 C 413.99,763.434 407.323,763.934 400.5,763C 398.714,762.215 397.214,761.049 396,759.5C 393.439,748.553 397.272,744.886 407.5,748.5C 409.63,750.127 411.63,751.96 413.5,754C 420.364,751.098 424.364,745.764 425.5,738C 417.421,717.673 408.921,697.506 400,677.5C 397.629,674.794 394.963,672.461 392,670.5C 391.202,668.741 391.369,667.074 392.5,665.5C 403.787,664.355 415.12,664.189 426.5,665C 428.211,666.133 428.711,667.633 428,669.5C 426.172,671.081 424.172,672.415 422,673.5C 421.333,675.833 421.333,678.167 422,680.5C 426.276,691.995 430.943,703.328 436,714.5C 441.612,702.334 446.446,689.834 450.5,677C 450.561,675.289 449.894,673.956 448.5,673C 444.183,672.652 442.017,670.485 442,666.5C 442.5,666 443,665.5 443.5,665C 451.5,664.333 459.5,664.333 467.5,665C 469.211,666.133 469.711,667.633 469,669.5C 465.962,672.203 463.295,675.203 461,678.5C 452.39,699.388 444.056,720.388 436,741.5C 433.921,745.993 431.588,750.326 429,754.5C 426.564,757.447 423.731,759.78 420.5,761.5 Z"/></g>
</svg>
